<svg id="Layer_1" data-name="Layer 1" xmlns="http://www.w3.org/2000/svg" viewBox="0 0 512 512"><title>wonder-wheel</title><circle cx="256" cy="256" r="256" fill="#fdf3d3"/><path id="wonder_wheel" data-name="wonder wheel" d="M240.83,222H140.28a26.63,26.63,0,0,1,12.28,8.13h80l-3.8,6.94-79,45.59A26.76,26.76,0,0,1,161,285.58l60.25-34.79-6.54,11.93c-.5-.57-1-1.15-1.49-1.73l-7.11,4.1a61.44,61.44,0,0,0,4.51,5.12L174,337.13a26.56,26.56,0,0,1,27.32-8.24l50.62-87.67V344.77a24.5,24.5,0,0,1,8.14,0V241.22l50.6,87.67A26.56,26.56,0,0,1,338,337.13l-36.65-66.93a60.46,60.46,0,0,0,4.5-5.12c-2.4-1.4-4.78-2.77-7.1-4.1-.48.59-1,1.16-1.5,1.73l-6.52-11.92L351,285.58a26.83,26.83,0,0,1,11.22-2.92l-79-45.59-3.8-6.94h80A26.69,26.69,0,0,1,371.71,222H271.17l65.31-37.7a26.3,26.3,0,0,1,3-11.16l-72.42,41.81,32.06-55.54a26.19,26.19,0,0,1-5.23-7.2l-33.87,58.68V150.13a25.76,25.76,0,0,1-4,.34,27.23,27.23,0,0,1-4.1-.34v60.75L218.05,152.2a26.46,26.46,0,0,1-5.22,7.21l32.07,55.54-72.44-41.81a26.49,26.49,0,0,1,3.06,11.16Zm-27.58-30.86a55.31,55.31,0,0,1,7.82-7.82c-1.36-2.34-2.72-4.72-4.11-7.11A64,64,0,0,0,206.13,187Zm33.88-19.58v-8.23a63.48,63.48,0,0,0-14.81,4c1.4,2.42,2.77,4.82,4.11,7.12A54.5,54.5,0,0,1,247.13,171.55Zm-53-9.82c.77,0,1.53-.05,2.28-.12.17,0,.36-.06.54-.08.55-.08,1.12-.16,1.69-.28l.48-.13c.56-.13,1.13-.28,1.67-.46a3.06,3.06,0,0,0,.37-.13c.59-.2,1.17-.44,1.73-.69l.22-.11a18.82,18.82,0,0,0,1.78-.92l.1-.05c.6-.38,1.2-.76,1.77-1.19a21,21,0,0,0,3.26-3h0a21.25,21.25,0,0,0,5.47-14.24,18.16,18.16,0,0,0-.13-2.21H172.9a21.07,21.07,0,0,0-.11,2.21,21.37,21.37,0,0,0,21.37,21.36Zm-2.4-37.8v9.43h4.8v-9.43a16.4,16.4,0,0,1,6.66,2.58,16.74,16.74,0,0,1,6,6.85h5.14a6.15,6.15,0,0,0-.22-.6c-.19-.52-.4-1-.64-1.5s-.3-.66-.47-1a21.55,21.55,0,0,0-1.15-1.9c-.26-.39-.55-.76-.85-1.13l-.62-.77c-.34-.41-.71-.8-1.09-1.19l-.26-.24a21.3,21.3,0,0,0-29.69-.07c-.11.11-.24.21-.36.32-.37.37-.7.75-1,1.15l-.68.82c-.28.36-.55.71-.8,1.1-.42.62-.82,1.27-1.17,1.92-.17.3-.31.62-.45.94-.23.49-.46,1-.65,1.52-.08.2-.15.4-.21.6h5.13A16.66,16.66,0,0,1,191.75,123.93ZM364.84,232.14l-.32.29c-.36.38-.71.77-1.05,1.17s-.44.52-.66.79-.56.73-.82,1.11a19.54,19.54,0,0,0-1.16,1.92c-.16.32-.31.63-.46.95-.22.49-.45,1-.64,1.51-.08.2-.15.39-.22.59h5.14A16.61,16.61,0,0,1,377.28,231v9.42h4.8V231a16.6,16.6,0,0,1,12.62,9.42h5.15c-.06-.2-.13-.4-.22-.59-.2-.51-.41-1-.65-1.52l-.45-.94a19.52,19.52,0,0,0-1.17-1.92c-.24-.39-.53-.74-.81-1.1l-.66-.82c-.33-.39-.68-.78-1-1.16l-.33-.3a21.3,21.3,0,0,0-29.68,0ZM319.52,347.59h.73v-9.42a14.68,14.68,0,0,1,2.14.46,16.68,16.68,0,0,1,10.48,9H338a21.33,21.33,0,0,0-20.16-14.35,21.57,21.57,0,0,0-8.31,1.67h0a21.37,21.37,0,0,0-6.46,4.29c-.13.12-.26.23-.38.35-.36.36-.7.75-1,1.15s-.47.55-.69.83-.55.71-.81,1.08c-.41.62-.8,1.27-1.16,1.94-.16.3-.29.62-.45.93-.24.5-.46,1-.65,1.52-.07.19-.15.39-.22.59h5.14a16.61,16.61,0,0,1,12.63-9.42v9.42Zm46-45.27V292.9a16.62,16.62,0,0,1,12.62,9.42h5.15a6,6,0,0,0-.22-.59c-.19-.52-.41-1-.64-1.52-.13-.32-.3-.64-.45-.95a21.53,21.53,0,0,0-1.16-1.91c-.26-.4-.55-.75-.83-1.11l-.64-.8c-.34-.39-.69-.79-1.07-1.18-.09-.1-.2-.17-.3-.28a21.31,21.31,0,0,0-29.7,0c-.1.11-.2.18-.31.28-.37.39-.71.78-1.06,1.18s-.43.54-.65.8-.57.72-.82,1.11a17.71,17.71,0,0,0-1.16,1.91c-.17.31-.31.63-.46.95-.24.5-.45,1-.64,1.52a6,6,0,0,0-.21.59h5.13a16.61,16.61,0,0,1,12.62-9.42v9.42Zm-50.76-52.58a61.9,61.9,0,0,0,4-14.8H310.5a55.3,55.3,0,0,1-2.88,10.69Zm-12.8-95.14a21.57,21.57,0,0,0,3.25,3h0c.59.42,1.17.81,1.78,1.19l.1.05c.57.34,1.17.64,1.76.92l.23.11c.55.25,1.13.48,1.73.69l.36.13c.55.18,1.12.33,1.68.46l.5.13c.55.12,1.12.2,1.69.28.18,0,.36.07.55.08.75.07,1.49.12,2.26.12a21.35,21.35,0,0,0,21.37-21.36c0-.75,0-1.48-.1-2.21H296.58c-.06.73-.1,1.46-.1,2.21a21.26,21.26,0,0,0,5.46,14.24Zm6.83-28.09a16.43,16.43,0,0,1,6.66-2.58v9.43h4.8v-9.43a16.63,16.63,0,0,1,12.62,9.43H338a6.14,6.14,0,0,0-.21-.6c-.19-.52-.42-1-.64-1.5-.16-.33-.3-.66-.47-1-.35-.66-.74-1.31-1.14-1.92-.27-.38-.57-.75-.85-1.11s-.41-.53-.64-.78a15.61,15.61,0,0,0-1.07-1.19l-.27-.25A21.3,21.3,0,0,0,303,125c-.11.11-.25.21-.36.32-.36.37-.71.75-1,1.15s-.47.54-.69.82-.55.71-.81,1.1c-.41.62-.8,1.27-1.15,1.92-.17.3-.31.62-.45.94a16,16,0,0,0-.65,1.52c-.07.2-.15.4-.22.6h5.14A16.66,16.66,0,0,1,308.78,126.51ZM363.11,207a21.38,21.38,0,0,0,21.38-21.38c0-.74-.05-1.47-.12-2.19h-42.5c-.07.72-.12,1.45-.12,2.19A21.38,21.38,0,0,0,363.11,207Zm-98.24-35.46a54.26,54.26,0,0,1,10.69,2.87c1.36-2.33,2.74-4.72,4.12-7.12a63.68,63.68,0,0,0-14.8-4Zm-6.47,192.6v-9.41A16.63,16.63,0,0,1,271,364.15h5.13c-.1-.29-.22-.58-.32-.86s-.27-.66-.42-1-.4-.89-.63-1.32-.37-.61-.55-.91a19.26,19.26,0,0,0-1.44-2.09c-.19-.24-.37-.48-.56-.71-.36-.4-.71-.8-1.08-1.18-.14-.15-.3-.29-.46-.43a22,22,0,0,0-4.31-3.2l-.42-.23c-.52-.26-1-.51-1.55-.74l-.47-.18a21.3,21.3,0,0,0-8-1.55,22.21,22.21,0,0,0-4.25.41,18.07,18.07,0,0,0-2.16.57c-.29.09-.55.2-.82.29-.49.18-1,.36-1.47.58-.27.13-.55.25-.81.39a15,15,0,0,0-1.39.76l-.69.41a20.13,20.13,0,0,0-1.69,1.22l-.21.16a20.63,20.63,0,0,0-2,1.86l-.27.31a21.4,21.4,0,0,0-4.41,7.41H241a16.61,16.61,0,0,1,12.61-9.41v9.41Zm87.88-185.53h1.81a15.34,15.34,0,0,1,.84-1.52,16.59,16.59,0,0,1,11.78-7.9v9.42h4.81V169.2a16.63,16.63,0,0,1,12.61,9.42h5.16c-.08-.18-.14-.38-.22-.55-.2-.54-.43-1.07-.67-1.58-.15-.3-.29-.61-.44-.9a17.83,17.83,0,0,0-1.17-1.95c-.24-.37-.52-.72-.8-1.07s-.44-.57-.66-.83-.69-.78-1-1.15c-.12-.12-.26-.23-.38-.36a21.33,21.33,0,0,0-35,8.39ZM295,176.2c-1.4,2.41-2.76,4.8-4.1,7.1a55.74,55.74,0,0,1,7.82,7.83l7.1-4.1A62.82,62.82,0,0,0,295,176.2Zm-39-31.08a21.38,21.38,0,0,0,6.22-.92l.44-.14c.47-.16.94-.32,1.39-.51l.64-.29c.37-.15.74-.34,1.09-.52s.5-.26.74-.4.62-.36.91-.55l.78-.5c.26-.18.5-.38.76-.58l.79-.62c.21-.18.41-.37.6-.55a22,22,0,0,0,2.75-3c.15-.2.3-.39.45-.61s.4-.6.59-.91l.45-.74a9.72,9.72,0,0,0,.48-.92,8.32,8.32,0,0,0,.4-.83c.14-.31.27-.61.39-.92s.24-.63.35-.94.2-.59.29-.9.19-.71.27-1.08.14-.56.19-.84.15-.86.2-1.29c0-.24.08-.48.1-.72a19.81,19.81,0,0,0,.1-2.06,20.61,20.61,0,0,0-.11-2.17H234.77a20.59,20.59,0,0,0-.11,2.17A21.36,21.36,0,0,0,256,145.12Zm-4.1-37.41a15.88,15.88,0,0,1,1.66-.35v9.42h4.82v-9.42c.56.08,1.11.21,1.67.35a16.7,16.7,0,0,1,11,9.07h5.18a21.56,21.56,0,0,0-4.43-7.42c-.08-.09-.16-.19-.26-.29a21.81,21.81,0,0,0-2-1.88,2.35,2.35,0,0,1-.2-.16c-.55-.43-1.12-.82-1.69-1.2-.22-.15-.45-.27-.67-.41-.46-.27-.92-.53-1.41-.78l-.79-.38a15.5,15.5,0,0,0-1.5-.59c-.27-.1-.5-.2-.77-.29a17.62,17.62,0,0,0-2.19-.57,21.25,21.25,0,0,0-12.17,1.11l-.53.21c-.52.22-1,.48-1.52.73l-.45.25a21.47,21.47,0,0,0-4.29,3.18,5.84,5.84,0,0,0-.46.43c-.38.38-.73.78-1.07,1.18-.2.23-.4.47-.57.7a24.28,24.28,0,0,0-1.43,2.05c-.19.32-.39.63-.57,1a14.41,14.41,0,0,0-.64,1.3l-.42,1q-.17.43-.31.86H241A16.66,16.66,0,0,1,251.93,107.71ZM310.5,217.18h8.21a61.72,61.72,0,0,0-4-14.81l-7.12,4.11A54.9,54.9,0,0,1,310.5,217.18ZM234.7,369c-.06.71-.1,1.44-.1,2.17a21.36,21.36,0,1,0,42.73,0,18.68,18.68,0,0,0-.1-2.17Zm-38.15-21.38v-9.42a16.61,16.61,0,0,1,12.62,9.42h5.14c-.06-.2-.13-.4-.21-.59-.2-.52-.41-1-.65-1.5-.13-.33-.29-.66-.45-1-.36-.66-.74-1.29-1.16-1.91-.26-.39-.55-.76-.84-1.12s-.41-.52-.62-.78-.71-.81-1.08-1.18c-.09-.1-.2-.18-.28-.27a21.34,21.34,0,0,0-35,8.32h5.13a16.72,16.72,0,0,1,10.49-9,14.71,14.71,0,0,1,2.14-.46v9.42h4.8Zm68.31-67v8.22a63.34,63.34,0,0,0,14.8-4c-1.39-2.43-2.77-4.82-4.12-7.13A55.21,55.21,0,0,1,264.87,280.56Zm-97.43,74a26.51,26.51,0,0,1,1.1-7.49l-30.28,55.27h-8v7.21h32v-7.21h-7.56l17.71-32.34A26.58,26.58,0,0,1,167.44,354.6Zm5.46-2.21a21.36,21.36,0,0,0,2.46,12.38c.41.74.86,1.43,1.33,2.12l.41.55a19.25,19.25,0,0,0,1.32,1.58c.12.13.23.27.36.39a20.44,20.44,0,0,0,1.93,1.78.51.51,0,0,1,.11.1c.64.5,1.31,1,2,1.39l.48.3a21.35,21.35,0,0,0,2.08,1.08,1.61,1.61,0,0,0,.26.12,17.81,17.81,0,0,0,2.49.9c.17.06.37.1.55.16.68.16,1.37.31,2.07.42l.71.11a21,21,0,0,0,2.69.18,21.36,21.36,0,0,0,21.37-21.35,18.16,18.16,0,0,0-.13-2.21Zm123.68,0c-.06.73-.1,1.46-.1,2.21A21.35,21.35,0,0,0,317.84,376a21,21,0,0,0,2.7-.18l.72-.11c.7-.11,1.38-.26,2.06-.42.18-.06.37-.1.57-.16a19.74,19.74,0,0,0,2.45-.89l.32-.14c.69-.32,1.36-.68,2-1.06.19-.1.34-.2.54-.32a22.57,22.57,0,0,0,1.92-1.34l.18-.15a21.68,21.68,0,0,0,1.91-1.75c.13-.13.26-.29.4-.43.45-.5.86-1,1.27-1.53.14-.2.3-.4.45-.61.45-.64.88-1.31,1.28-2a21.48,21.48,0,0,0,2.61-10.26c0-.75,0-1.48-.1-2.21ZM400.94,245.27H358.43a21.18,21.18,0,0,0,4.77,15.79,21.37,21.37,0,0,0,37.86-13.59A21.1,21.1,0,0,0,400.94,245.27Zm-59.08,61.84c-.07.73-.11,1.47-.11,2.2a21.37,21.37,0,0,0,42.74,0,19.49,19.49,0,0,0-.13-2.2Zm-94.73-26.56a55.83,55.83,0,0,1-10.7-2.88l-4.11,7.13a63.14,63.14,0,0,0,14.81,4ZM146.47,169.2v9.42h4.81V169.2a16.57,16.57,0,0,1,11.78,7.9,14.09,14.09,0,0,1,.83,1.52H169a21.34,21.34,0,0,0-30.34-11.77h0a21.71,21.71,0,0,0-4.6,3.38c-.12.13-.26.24-.38.36-.36.36-.7.76-1,1.15s-.47.54-.68.84-.55.69-.81,1.06a19.91,19.91,0,0,0-1.16,1.95c-.17.29-.31.61-.45.92-.24.5-.45,1-.65,1.53-.07.18-.15.39-.22.57h5.16A16.63,16.63,0,0,1,146.47,169.2Zm50.78,33.17a62.39,62.39,0,0,0-4,14.81h8.22a54.05,54.05,0,0,1,2.89-10.7C202,205.13,199.66,203.76,197.25,202.37Zm4.24,32.56h-8.22a62.67,62.67,0,0,0,4,14.8c2.42-1.4,4.8-2.79,7.12-4.12A53.85,53.85,0,0,1,201.49,234.93Zm-50.2,67.38v-9.43a16.61,16.61,0,0,1,12.61,9.43H169c-.07-.21-.14-.39-.21-.59-.2-.52-.43-1-.66-1.52-.15-.31-.28-.63-.45-.94-.36-.66-.74-1.31-1.16-1.93-.25-.38-.54-.73-.82-1.09s-.43-.55-.66-.81-.68-.79-1-1.16l-.36-.34a21.33,21.33,0,0,0-25-3.41h0a22.07,22.07,0,0,0-4.62,3.41c-.11.11-.24.22-.36.34-.37.37-.71.76-1,1.15s-.46.55-.68.83-.55.71-.81,1.08a21.28,21.28,0,0,0-1.16,1.94c-.17.3-.29.61-.44.91-.25.51-.46,1-.67,1.57l-.22.57h5.16a16.64,16.64,0,0,1,12.61-9.43v9.43Zm-2.41,28.37a21.38,21.38,0,0,0,21.37-21.37c0-.74,0-1.48-.11-2.2H127.63a21.38,21.38,0,0,0,21.25,23.58Zm-.08-69.63a21.23,21.23,0,0,0,4.87-13.59c0-.73,0-1.47-.1-2.2H111.05c-.07.73-.1,1.47-.1,2.2a21.36,21.36,0,0,0,37.85,13.59Zm-18.88-30v9.42h4.8V231a16.59,16.59,0,0,1,12.61,9.42h5.15l-.21-.59c-.2-.51-.42-1-.66-1.52-.16-.31-.29-.62-.45-.94A20.9,20.9,0,0,0,150,235.5c-.26-.39-.54-.74-.83-1.1s-.42-.55-.65-.82-.69-.78-1.06-1.16l-.32-.3a21.29,21.29,0,0,0-29.67,0,3.35,3.35,0,0,0-.31.29c-.38.38-.72.77-1.07,1.17s-.43.52-.63.79-.57.73-.85,1.11c-.39.62-.8,1.25-1.14,1.92-.17.32-.31.63-.46.95-.24.49-.45,1-.64,1.51-.08.2-.15.39-.21.59h5.15A16.57,16.57,0,0,1,129.91,231Zm19-24a21.39,21.39,0,0,0,21.37-21.38c0-.74,0-1.47-.11-2.19H127.62c-.07.72-.1,1.45-.1,2.19A21.36,21.36,0,0,0,148.88,207ZM343.45,347.11a26.08,26.08,0,0,1,1.1,7.49,26.55,26.55,0,0,1-5,15.45c8.2,14.94,14.68,26.79,17.73,32.34h-7.61v7.21h32v-7.21h-8.07Z" fill="#6e5444"/></svg>